# xmcd
#
# Track frame offsets: 
#        183
#        20680
#        38340
#        71718
#        93318
#        114968
#        139788
#        157328
#
# Disc length: 2340 seconds
#
# Revision: 7
# Processed by: cddbd v1.5.2PL0 Copyright (c) Steve Scherf et al.
# Submitted via: ExactAudioCopy v1.0b4
#
DISCID=65092208
DTITLE=Duke Tumatoe and the Power Trio - I Like My Job
DYEAR=1989
DGENRE=blues
TTITLE0=Get Loose
TTITLE1=Shakey Ground (Live)
TTITLE2=If I Hadn't Been High (Live)
TTITLE3=Bar-B-Que (Live)
TTITLE4=Tie You Up (Live)
TTITLE5=More Love, More Money (Live)
TTITLE6=Can't Judge A Book (Live)
TTITLE7=Sweet Home Chicago (Live)
EXTD=produced by John Fogerty\nlive at:\nCenter St Blues Cafe, Mishawa
EXTD=ka, IN\nDeSalvo's, Chicago, IL\nThe Vogue Nightclub, Indianapolis
EXTD=, IN\nmore info\nMillenniumMusicProjectFormat, syntax as follows:
EXTD=\nTitle{Subtitle}[info](Lyricist;Composer;Date,Artist,Location)[i
EXTD=nfo]\ncorrections to: windking3@yahoo.com
EXTT0=
EXTT1=
EXTT2=
EXTT3=
EXTT4=
EXTT5=
EXTT6=
EXTT7=
PLAYORDER=
